<mxfile host="Electron" agent="Mozilla/5.0 (Windows NT 10.0; Win64; x64) AppleWebKit/537.36 (KHTML, like Gecko) draw.io/28.1.2 Chrome/138.0.7204.243 Electron/37.4.0 Safari/537.36" version="28.1.2">
  <diagram name="Page-1" id="EEMFTcuCKEHFT30JosnA">
    <mxGraphModel dx="1042" dy="626" grid="1" gridSize="10" guides="1" tooltips="1" connect="1" arrows="1" fold="1" page="1" pageScale="1" pageWidth="850" pageHeight="1100" math="0" shadow="0">
      <root>
        <mxCell id="0" />
        <mxCell id="1" parent="0" />
        <mxCell id="HULNCQ3qb2eQuMd5yR8u-1" value="Data Flow Diagram" style="text;html=1;align=center;verticalAlign=middle;whiteSpace=wrap;rounded=0;fontSize=24;" parent="1" vertex="1">
          <mxGeometry x="70" y="20" width="210" height="60" as="geometry" />
        </mxCell>
        <mxCell id="HULNCQ3qb2eQuMd5yR8u-2" value="" style="rounded=0;whiteSpace=wrap;html=1;fillColor=none;dashed=1;" parent="1" vertex="1">
          <mxGeometry x="30" y="140" width="120" height="460" as="geometry" />
        </mxCell>
        <mxCell id="HULNCQ3qb2eQuMd5yR8u-3" value="Sources" style="text;html=1;align=center;verticalAlign=middle;whiteSpace=wrap;rounded=0;fontSize=16;fillColor=default;strokeWidth=0;" parent="1" vertex="1">
          <mxGeometry x="45" y="120" width="90" height="30" as="geometry" />
        </mxCell>
        <mxCell id="HULNCQ3qb2eQuMd5yR8u-4" value="" style="rounded=0;whiteSpace=wrap;html=1;fillColor=none;dashed=1;strokeColor=#CC6600;" parent="1" vertex="1">
          <mxGeometry x="220" y="140" width="130" height="460" as="geometry" />
        </mxCell>
        <mxCell id="HULNCQ3qb2eQuMd5yR8u-5" value="Bronze Layer" style="text;html=1;align=center;verticalAlign=middle;whiteSpace=wrap;rounded=0;fontSize=16;fillColor=#a0522d;strokeWidth=0;fontColor=#ffffff;strokeColor=#6D1F00;" parent="1" vertex="1">
          <mxGeometry x="230" y="100" width="110" height="30" as="geometry" />
        </mxCell>
        <mxCell id="HULNCQ3qb2eQuMd5yR8u-6" value="" style="image;aspect=fixed;html=1;points=[];align=center;fontSize=12;image=img/lib/azure2/general/Folder_Blank.svg;" parent="1" vertex="1">
          <mxGeometry x="60" y="410" width="49.29" height="40" as="geometry" />
        </mxCell>
        <mxCell id="HULNCQ3qb2eQuMd5yR8u-18" style="edgeStyle=orthogonalEdgeStyle;rounded=0;orthogonalLoop=1;jettySize=auto;html=1;entryX=0;entryY=0.5;entryDx=0;entryDy=0;" parent="1" source="HULNCQ3qb2eQuMd5yR8u-7" target="HULNCQ3qb2eQuMd5yR8u-12" edge="1">
          <mxGeometry relative="1" as="geometry" />
        </mxCell>
        <mxCell id="HULNCQ3qb2eQuMd5yR8u-19" style="edgeStyle=orthogonalEdgeStyle;rounded=0;orthogonalLoop=1;jettySize=auto;html=1;entryX=0;entryY=0.5;entryDx=0;entryDy=0;" parent="1" source="HULNCQ3qb2eQuMd5yR8u-7" target="HULNCQ3qb2eQuMd5yR8u-11" edge="1">
          <mxGeometry relative="1" as="geometry">
            <Array as="points">
              <mxPoint x="160" y="250" />
              <mxPoint x="160" y="215" />
            </Array>
          </mxGeometry>
        </mxCell>
        <mxCell id="HULNCQ3qb2eQuMd5yR8u-7" value="" style="image;aspect=fixed;html=1;points=[];align=center;fontSize=12;image=img/lib/azure2/general/Folder_Blank.svg;" parent="1" vertex="1">
          <mxGeometry x="60" y="230" width="50" height="40.58" as="geometry" />
        </mxCell>
        <mxCell id="HULNCQ3qb2eQuMd5yR8u-8" value="CRM" style="text;html=1;align=center;verticalAlign=middle;whiteSpace=wrap;rounded=0;fontSize=16;fillColor=default;strokeWidth=0;" parent="1" vertex="1">
          <mxGeometry x="54.65" y="280" width="60" height="20" as="geometry" />
        </mxCell>
        <mxCell id="HULNCQ3qb2eQuMd5yR8u-10" value="ERP" style="text;html=1;align=center;verticalAlign=middle;whiteSpace=wrap;rounded=0;fontSize=16;fillColor=default;strokeWidth=0;" parent="1" vertex="1">
          <mxGeometry x="54.65" y="460" width="60" height="20" as="geometry" />
        </mxCell>
        <mxCell id="IKysPHWDDo3FkZVAUrx8-17" value="" style="edgeStyle=orthogonalEdgeStyle;rounded=0;orthogonalLoop=1;jettySize=auto;html=1;" parent="1" source="HULNCQ3qb2eQuMd5yR8u-11" target="IKysPHWDDo3FkZVAUrx8-4" edge="1">
          <mxGeometry relative="1" as="geometry" />
        </mxCell>
        <mxCell id="HULNCQ3qb2eQuMd5yR8u-11" value="crm_sales_details" style="text;html=1;align=center;verticalAlign=middle;whiteSpace=wrap;rounded=0;fillColor=#a0522d;fontColor=#ffffff;strokeColor=#6D1F00;" parent="1" vertex="1">
          <mxGeometry x="225" y="200" width="120" height="30" as="geometry" />
        </mxCell>
        <mxCell id="IKysPHWDDo3FkZVAUrx8-19" style="edgeStyle=orthogonalEdgeStyle;rounded=0;orthogonalLoop=1;jettySize=auto;html=1;entryX=0;entryY=0.5;entryDx=0;entryDy=0;" parent="1" source="HULNCQ3qb2eQuMd5yR8u-12" target="IKysPHWDDo3FkZVAUrx8-4" edge="1">
          <mxGeometry relative="1" as="geometry" />
        </mxCell>
        <mxCell id="HULNCQ3qb2eQuMd5yR8u-12" value="crm_cust_info" style="text;html=1;align=center;verticalAlign=middle;whiteSpace=wrap;rounded=0;fillColor=#a0522d;fontColor=#ffffff;strokeColor=#6D1F00;" parent="1" vertex="1">
          <mxGeometry x="225" y="235" width="120" height="30" as="geometry" />
        </mxCell>
        <mxCell id="IKysPHWDDo3FkZVAUrx8-24" style="edgeStyle=orthogonalEdgeStyle;rounded=0;orthogonalLoop=1;jettySize=auto;html=1;entryX=0;entryY=0.5;entryDx=0;entryDy=0;" parent="1" source="HULNCQ3qb2eQuMd5yR8u-13" target="IKysPHWDDo3FkZVAUrx8-5" edge="1">
          <mxGeometry relative="1" as="geometry" />
        </mxCell>
        <mxCell id="HULNCQ3qb2eQuMd5yR8u-13" value="crm_prd_info" style="text;html=1;align=center;verticalAlign=middle;whiteSpace=wrap;rounded=0;fillColor=#a0522d;fontColor=#ffffff;strokeColor=#6D1F00;" parent="1" vertex="1">
          <mxGeometry x="225" y="275" width="120" height="30" as="geometry" />
        </mxCell>
        <mxCell id="IKysPHWDDo3FkZVAUrx8-21" style="edgeStyle=orthogonalEdgeStyle;rounded=0;orthogonalLoop=1;jettySize=auto;html=1;entryX=0;entryY=0.5;entryDx=0;entryDy=0;" parent="1" source="HULNCQ3qb2eQuMd5yR8u-14" target="IKysPHWDDo3FkZVAUrx8-6" edge="1">
          <mxGeometry relative="1" as="geometry" />
        </mxCell>
        <mxCell id="HULNCQ3qb2eQuMd5yR8u-14" value="erp_cust_az12" style="text;html=1;align=center;verticalAlign=middle;whiteSpace=wrap;rounded=0;fillColor=#a0522d;fontColor=#ffffff;strokeColor=#6D1F00;" parent="1" vertex="1">
          <mxGeometry x="225" y="370" width="120" height="30" as="geometry" />
        </mxCell>
        <mxCell id="IKysPHWDDo3FkZVAUrx8-22" style="edgeStyle=orthogonalEdgeStyle;rounded=0;orthogonalLoop=1;jettySize=auto;html=1;entryX=0;entryY=0.5;entryDx=0;entryDy=0;" parent="1" source="HULNCQ3qb2eQuMd5yR8u-15" target="IKysPHWDDo3FkZVAUrx8-7" edge="1">
          <mxGeometry relative="1" as="geometry" />
        </mxCell>
        <mxCell id="HULNCQ3qb2eQuMd5yR8u-15" value="erp_loc_a101" style="text;html=1;align=center;verticalAlign=middle;whiteSpace=wrap;rounded=0;fillColor=#a0522d;fontColor=#ffffff;strokeColor=#6D1F00;" parent="1" vertex="1">
          <mxGeometry x="225" y="415" width="120" height="30" as="geometry" />
        </mxCell>
        <mxCell id="IKysPHWDDo3FkZVAUrx8-23" style="edgeStyle=orthogonalEdgeStyle;rounded=0;orthogonalLoop=1;jettySize=auto;html=1;entryX=0;entryY=0.5;entryDx=0;entryDy=0;" parent="1" source="HULNCQ3qb2eQuMd5yR8u-16" target="IKysPHWDDo3FkZVAUrx8-8" edge="1">
          <mxGeometry relative="1" as="geometry" />
        </mxCell>
        <mxCell id="HULNCQ3qb2eQuMd5yR8u-16" value="erp_px_cat_g1v2" style="text;html=1;align=center;verticalAlign=middle;whiteSpace=wrap;rounded=0;fillColor=#a0522d;fontColor=#ffffff;strokeColor=#6D1F00;" parent="1" vertex="1">
          <mxGeometry x="225" y="455" width="120" height="30" as="geometry" />
        </mxCell>
        <mxCell id="HULNCQ3qb2eQuMd5yR8u-20" style="edgeStyle=orthogonalEdgeStyle;rounded=0;orthogonalLoop=1;jettySize=auto;html=1;entryX=0.025;entryY=0.329;entryDx=0;entryDy=0;entryPerimeter=0;" parent="1" source="HULNCQ3qb2eQuMd5yR8u-7" target="HULNCQ3qb2eQuMd5yR8u-4" edge="1">
          <mxGeometry relative="1" as="geometry">
            <Array as="points">
              <mxPoint x="160" y="250" />
              <mxPoint x="160" y="291" />
            </Array>
          </mxGeometry>
        </mxCell>
        <mxCell id="HULNCQ3qb2eQuMd5yR8u-21" style="edgeStyle=orthogonalEdgeStyle;rounded=0;orthogonalLoop=1;jettySize=auto;html=1;entryX=-0.004;entryY=0.629;entryDx=0;entryDy=0;entryPerimeter=0;" parent="1" source="HULNCQ3qb2eQuMd5yR8u-6" target="HULNCQ3qb2eQuMd5yR8u-4" edge="1">
          <mxGeometry relative="1" as="geometry" />
        </mxCell>
        <mxCell id="HULNCQ3qb2eQuMd5yR8u-23" style="edgeStyle=orthogonalEdgeStyle;rounded=0;orthogonalLoop=1;jettySize=auto;html=1;entryX=0.019;entryY=0.536;entryDx=0;entryDy=0;entryPerimeter=0;" parent="1" source="HULNCQ3qb2eQuMd5yR8u-6" target="HULNCQ3qb2eQuMd5yR8u-4" edge="1">
          <mxGeometry relative="1" as="geometry" />
        </mxCell>
        <mxCell id="HULNCQ3qb2eQuMd5yR8u-24" style="edgeStyle=orthogonalEdgeStyle;rounded=0;orthogonalLoop=1;jettySize=auto;html=1;entryX=0.007;entryY=0.723;entryDx=0;entryDy=0;entryPerimeter=0;" parent="1" source="HULNCQ3qb2eQuMd5yR8u-6" target="HULNCQ3qb2eQuMd5yR8u-4" edge="1">
          <mxGeometry relative="1" as="geometry" />
        </mxCell>
        <mxCell id="IKysPHWDDo3FkZVAUrx8-1" value="" style="rounded=0;whiteSpace=wrap;html=1;fillColor=none;dashed=1;strokeColor=#E6D0DE;" parent="1" vertex="1">
          <mxGeometry x="420" y="140" width="130" height="460" as="geometry" />
        </mxCell>
        <mxCell id="IKysPHWDDo3FkZVAUrx8-2" value="Silver Layer" style="text;html=1;align=center;verticalAlign=middle;whiteSpace=wrap;rounded=0;fontSize=16;fillColor=#E6D0DE;strokeWidth=0;fontColor=#000000;strokeColor=#E6D0DE;" parent="1" vertex="1">
          <mxGeometry x="430" y="100" width="110" height="30" as="geometry" />
        </mxCell>
        <mxCell id="rkkT-jIpqkSbsP9Y4riI-9" style="edgeStyle=orthogonalEdgeStyle;rounded=0;orthogonalLoop=1;jettySize=auto;html=1;entryX=0;entryY=0.5;entryDx=0;entryDy=0;" edge="1" parent="1" source="IKysPHWDDo3FkZVAUrx8-3" target="rkkT-jIpqkSbsP9Y4riI-7">
          <mxGeometry relative="1" as="geometry" />
        </mxCell>
        <mxCell id="IKysPHWDDo3FkZVAUrx8-3" value="crm_sales_details" style="text;html=1;align=center;verticalAlign=middle;whiteSpace=wrap;rounded=0;fillColor=#E6D0DE;fontColor=#000000;strokeColor=#E6D0DE;" parent="1" vertex="1">
          <mxGeometry x="425" y="200" width="120" height="30" as="geometry" />
        </mxCell>
        <mxCell id="IKysPHWDDo3FkZVAUrx8-4" value="crm_cust_info" style="text;html=1;align=center;verticalAlign=middle;whiteSpace=wrap;rounded=0;fillColor=#E6D0DE;fontColor=#000000;strokeColor=#E6D0DE;" parent="1" vertex="1">
          <mxGeometry x="425" y="235" width="120" height="30" as="geometry" />
        </mxCell>
        <mxCell id="IKysPHWDDo3FkZVAUrx8-5" value="crm_prd_info" style="text;html=1;align=center;verticalAlign=middle;whiteSpace=wrap;rounded=0;fillColor=#E6D0DE;fontColor=#000000;strokeColor=#E6D0DE;" parent="1" vertex="1">
          <mxGeometry x="425" y="275" width="120" height="30" as="geometry" />
        </mxCell>
        <mxCell id="IKysPHWDDo3FkZVAUrx8-6" value="erp_cust_az12" style="text;html=1;align=center;verticalAlign=middle;whiteSpace=wrap;rounded=0;fillColor=#E6D0DE;fontColor=#000000;strokeColor=#E6D0DE;" parent="1" vertex="1">
          <mxGeometry x="425" y="370" width="120" height="30" as="geometry" />
        </mxCell>
        <mxCell id="IKysPHWDDo3FkZVAUrx8-7" value="erp_loc_a101" style="text;html=1;align=center;verticalAlign=middle;whiteSpace=wrap;rounded=0;fillColor=#E6D0DE;fontColor=#000000;strokeColor=#E6D0DE;" parent="1" vertex="1">
          <mxGeometry x="425" y="415" width="120" height="30" as="geometry" />
        </mxCell>
        <mxCell id="IKysPHWDDo3FkZVAUrx8-8" value="erp_px_cat_g1v2" style="text;html=1;align=center;verticalAlign=middle;whiteSpace=wrap;rounded=0;fillColor=#E6D0DE;fontColor=#000000;strokeColor=#E6D0DE;" parent="1" vertex="1">
          <mxGeometry x="425" y="455" width="120" height="30" as="geometry" />
        </mxCell>
        <mxCell id="IKysPHWDDo3FkZVAUrx8-18" style="edgeStyle=orthogonalEdgeStyle;rounded=0;orthogonalLoop=1;jettySize=auto;html=1;entryX=0.037;entryY=0.163;entryDx=0;entryDy=0;entryPerimeter=0;" parent="1" source="HULNCQ3qb2eQuMd5yR8u-11" target="IKysPHWDDo3FkZVAUrx8-1" edge="1">
          <mxGeometry relative="1" as="geometry" />
        </mxCell>
        <mxCell id="rkkT-jIpqkSbsP9Y4riI-1" value="" style="rounded=0;whiteSpace=wrap;html=1;fillColor=none;dashed=1;strokeColor=#E6D0DE;" vertex="1" parent="1">
          <mxGeometry x="650" y="140" width="130" height="460" as="geometry" />
        </mxCell>
        <mxCell id="rkkT-jIpqkSbsP9Y4riI-2" value="Gold Layer" style="text;html=1;align=center;verticalAlign=middle;whiteSpace=wrap;rounded=0;fontSize=16;fillColor=#f0a30a;strokeWidth=0;fontColor=#000000;strokeColor=#BD7000;" vertex="1" parent="1">
          <mxGeometry x="660" y="100" width="110" height="30" as="geometry" />
        </mxCell>
        <mxCell id="rkkT-jIpqkSbsP9Y4riI-3" value="dim_customers" style="text;html=1;align=center;verticalAlign=middle;whiteSpace=wrap;rounded=0;fillColor=#f0a30a;fontColor=#000000;strokeColor=#BD7000;" vertex="1" parent="1">
          <mxGeometry x="655" y="320" width="120" height="30" as="geometry" />
        </mxCell>
        <mxCell id="rkkT-jIpqkSbsP9Y4riI-5" value="dim_products" style="text;html=1;align=center;verticalAlign=middle;whiteSpace=wrap;rounded=0;fillColor=#f0a30a;fontColor=#000000;strokeColor=#BD7000;" vertex="1" parent="1">
          <mxGeometry x="655" y="420" width="120" height="30" as="geometry" />
        </mxCell>
        <mxCell id="rkkT-jIpqkSbsP9Y4riI-7" value="fact_sales" style="text;html=1;align=center;verticalAlign=middle;whiteSpace=wrap;rounded=0;fillColor=#f0a30a;fontColor=#000000;strokeColor=#BD7000;" vertex="1" parent="1">
          <mxGeometry x="655" y="200" width="120" height="30" as="geometry" />
        </mxCell>
        <mxCell id="rkkT-jIpqkSbsP9Y4riI-10" style="edgeStyle=orthogonalEdgeStyle;rounded=0;orthogonalLoop=1;jettySize=auto;html=1;entryX=0.031;entryY=0.426;entryDx=0;entryDy=0;entryPerimeter=0;jumpStyle=arc;fillColor=#e51400;strokeColor=#B20000;" edge="1" parent="1" source="IKysPHWDDo3FkZVAUrx8-4" target="rkkT-jIpqkSbsP9Y4riI-1">
          <mxGeometry relative="1" as="geometry" />
        </mxCell>
        <mxCell id="rkkT-jIpqkSbsP9Y4riI-11" style="edgeStyle=orthogonalEdgeStyle;rounded=0;orthogonalLoop=1;jettySize=auto;html=1;entryX=-0.025;entryY=0.64;entryDx=0;entryDy=0;entryPerimeter=0;jumpStyle=arc;fillColor=none;" edge="1" parent="1" source="IKysPHWDDo3FkZVAUrx8-5" target="rkkT-jIpqkSbsP9Y4riI-1">
          <mxGeometry relative="1" as="geometry" />
        </mxCell>
        <mxCell id="rkkT-jIpqkSbsP9Y4riI-12" style="edgeStyle=orthogonalEdgeStyle;rounded=0;orthogonalLoop=1;jettySize=auto;html=1;entryX=0.025;entryY=0.426;entryDx=0;entryDy=0;entryPerimeter=0;fillColor=#e51400;strokeColor=#B20000;" edge="1" parent="1" source="IKysPHWDDo3FkZVAUrx8-6" target="rkkT-jIpqkSbsP9Y4riI-1">
          <mxGeometry relative="1" as="geometry" />
        </mxCell>
        <mxCell id="rkkT-jIpqkSbsP9Y4riI-13" style="edgeStyle=orthogonalEdgeStyle;rounded=0;orthogonalLoop=1;jettySize=auto;html=1;entryX=0.025;entryY=0.424;entryDx=0;entryDy=0;entryPerimeter=0;fillColor=#e51400;strokeColor=#B20000;" edge="1" parent="1" source="IKysPHWDDo3FkZVAUrx8-7" target="rkkT-jIpqkSbsP9Y4riI-1">
          <mxGeometry relative="1" as="geometry" />
        </mxCell>
        <mxCell id="rkkT-jIpqkSbsP9Y4riI-14" style="edgeStyle=orthogonalEdgeStyle;rounded=0;orthogonalLoop=1;jettySize=auto;html=1;entryX=-0.006;entryY=0.638;entryDx=0;entryDy=0;entryPerimeter=0;fillColor=none;" edge="1" parent="1" source="IKysPHWDDo3FkZVAUrx8-8" target="rkkT-jIpqkSbsP9Y4riI-1">
          <mxGeometry relative="1" as="geometry" />
        </mxCell>
      </root>
    </mxGraphModel>
  </diagram>
</mxfile>
